<?xml version="1.0" encoding="UTF-8" standalone="no"?>
<!-- Created with Inkscape (http://www.inkscape.org/) -->

<svg
   xmlns:dc="http://purl.org/dc/elements/1.1/"
   xmlns:cc="http://creativecommons.org/ns#"
   xmlns:rdf="http://www.w3.org/1999/02/22-rdf-syntax-ns#"
   xmlns:svg="http://www.w3.org/2000/svg"
   xmlns="http://www.w3.org/2000/svg"
   xmlns:sodipodi="http://sodipodi.sourceforge.net/DTD/sodipodi-0.dtd"
   xmlns:inkscape="http://www.inkscape.org/namespaces/inkscape"
   width="744.09448819"
   height="1052.3622047"
   id="svg3108"
   version="1.1"
   inkscape:version="0.48.4 r9939"
   sodipodi:docname="round_gauge_270.svg">
  <defs
     id="defs3110">
    <inkscape:path-effect
       effect="skeletal"
       id="path-effect3483"
       is_visible="true"
       pattern="M 1.709598,10 1.92228,0 C 1.27864,0.01 0.63788,0 0,0 l 0.206279,10"
       copytype="repeated"
       prop_scale="1"
       scale_y_rel="false"
       spacing="1.2"
       normal_offset="0"
       tang_offset="0"
       prop_units="true"
       vertical_pattern="false"
       fuse_tolerance="0" />
    <inkscape:path-effect
       effect="skeletal"
       id="path-effect3395"
       is_visible="true"
       pattern="#path2374"
       copytype="repeated"
       prop_scale="1"
       scale_y_rel="false"
       spacing="1.6"
       normal_offset="0"
       tang_offset="0"
       prop_units="false"
       vertical_pattern="false"
       fuse_tolerance="0" />
    <inkscape:path-effect
       effect="skeletal"
       id="path-effect3291"
       is_visible="true"
       pattern="m 119.19801,962.07977 a 8.4600277,6.1871843 0 1 1 -8.46003,-6.18718 l 0,6.18718 z"
       copytype="repeated"
       prop_scale="1"
       scale_y_rel="false"
       spacing="0"
       normal_offset="0"
       tang_offset="0"
       prop_units="false"
       vertical_pattern="false"
       fuse_tolerance="0" />
    <inkscape:path-effect
       effect="skeletal"
       id="path-effect3184"
       is_visible="true"
       pattern="M 0,0 1,0"
       copytype="single_stretched"
       prop_scale="1"
       scale_y_rel="true"
       spacing="10"
       normal_offset="0"
       tang_offset="0"
       prop_units="false"
       vertical_pattern="false"
       fuse_tolerance="0" />
    <inkscape:path-effect
       effect="bend_path"
       id="path-effect3182"
       is_visible="true"
       bendpath="m 148.57143,402.36218 288.57144,0"
       prop_scale="1"
       scale_y_rel="false"
       vertical="false" />
  </defs>
  <sodipodi:namedview
     id="base"
     pagecolor="#000000"
     bordercolor="#666666"
     borderopacity="1.0"
     inkscape:pageopacity="0.49803922"
     inkscape:pageshadow="2"
     inkscape:zoom="5.6568542"
     inkscape:cx="85.980184"
     inkscape:cy="25.329776"
     inkscape:document-units="px"
     inkscape:current-layer="layer1"
     showgrid="false"
     inkscape:window-width="1600"
     inkscape:window-height="876"
     inkscape:window-x="0"
     inkscape:window-y="24"
     inkscape:window-maximized="1" />
  <metadata
     id="metadata3113">
    <rdf:RDF>
      <cc:Work
         rdf:about="">
        <dc:format>image/svg+xml</dc:format>
        <dc:type
           rdf:resource="http://purl.org/dc/dcmitype/StillImage" />
      </cc:Work>
    </rdf:RDF>
  </metadata>
  <g
     inkscape:label="Layer 1"
     inkscape:groupmode="layer"
     id="layer1">
    <path
       sodipodi:type="arc"
       style="fill:#ffffff10;fill-rule:evenodd;stroke-width:0.97986567px;stroke-linecap:butt;stroke-linejoin:miter;stroke-opacity:1"
       id="path3481"
       sodipodi:cx="56.5"
       sodipodi:cy="1008.8622"
       sodipodi:rx="43.5"
       sodipodi:ry="43.5"
       d="m 94.971739,1010.3664 c 3.326346,0.1987 6.651681,0.4142 9.975891,0.6465 0.0238,-0.7194 0.0511,-1.436 0.0524,-2.1507 -3.33346,0.077 -6.666854,0.1375 -10.000067,0.1814 m -0.364107,5.036 c 3.288839,0.5272 6.575234,1.0705 9.859074,1.6301 0.0938,-0.7113 0.19117,-1.4193 0.2627,-2.1275 -3.32137,-0.2573 -6.641254,-0.5306 -9.959566,-0.8198 m -0.864941,4.9905 c 3.223009,0.8431 6.442147,1.7019 9.657297,2.5763 0.16158,-0.6978 0.32662,-1.3916 0.46619,-2.0879 -3.28044,-0.5803 -6.558012,-1.1761 -9.832603,-1.7873 m -1.345421,4.8959 c 3.128856,1.1467 6.252405,2.3085 9.370544,3.4852 0.22718,-0.6786 0.45751,-1.3528 0.66286,-2.0318 -3.210702,-0.8921 -6.41713,-1.7992 -9.619182,-2.7211 m -1.805544,4.7522 c 3.006377,1.4379 6.006019,2.8901 8.998816,4.3567 0.29059,-0.6539 0.58385,-1.303 0.85271,-1.9591 -3.112143,-1.1927 -6.218612,-2.3998 -9.319305,-3.6211 m -2.245314,4.5592 c 2.855577,1.7166 5.702987,3.4469 8.542122,5.191 0.351787,-0.6237 0.705623,-1.2423 1.03573,-1.8701 -2.984764,-1.482 -5.962454,-2.9778 -8.932968,-4.4873 m -2.664729,4.3172 c 2.676452,1.9828 5.343307,3.9787 8.000456,5.9878 0.41079,-0.5878 0.822835,-1.1704 1.211925,-1.7645 -2.828566,-1.7601 -5.648658,-3.5334 -8.460174,-5.3199 m -3.063788,4.026 c 2.469004,2.2366 4.92698,4.4858 7.373819,6.7475 0.467593,-0.5466 0.935487,-1.0877 1.381294,-1.6425 -2.643548,-2.0269 -5.277223,-4.0665 -7.900921,-6.1187 m -3.439473,3.6903 c 2.231766,2.4749 4.450959,4.9611 6.657534,7.4585 0.429798,-0.4087 0.859972,-0.8143 1.279168,-1.2291 0.08936,-0.089 0.178177,-0.1784 0.266327,-0.2683 -2.429711,-2.2825 -4.848148,-4.5771 -7.25521,-6.8838 m -3.791006,3.3332 c 1.97388,2.6829 3.934608,5.3757 5.882138,8.0783 0.565992,-0.4412 1.132185,-0.8774 1.680173,-1.3321 -2.186644,-2.5133 -4.360971,-5.037 -6.522941,-7.571 m -4.116549,2.9488 c 1.704766,2.8621 3.395799,5.7327 5.073055,8.6116 0.604772,-0.3838 1.209237,-0.7624 1.797351,-1.1607 -1.930258,-2.7151 -3.847609,-5.4392 -5.75201,-8.1722 m -4.393314,2.5438 c 1.424424,3.0125 2.834534,6.032 4.230288,9.0584 0.638068,-0.3241 1.275277,-0.6428 1.898049,-0.9825 -1.661447,-2.8885 -3.309396,-5.7847 -4.943802,-8.6883 m -4.620938,2.1184 c 1.132853,3.1341 2.250812,6.2737 3.353835,9.4187 0.665882,-0.2619 1.330306,-0.5186 1.982268,-0.7974 -1.38021,-3.0336 -2.74633,-6.0735 -4.098317,-9.1195 m -4.79942,1.6726 c 0.830053,3.2269 1.644633,6.4578 2.443695,9.6927 0.688216,-0.1975 1.374326,-0.3899 2.05001,-0.6056 -1.086549,-3.1504 -2.158415,-6.3057 -3.215555,-9.4656 m -4.928762,1.2065 c 0.516025,3.2907 1.015996,6.5841 1.49987,9.88 0.705066,-0.1306 1.407335,-0.2566 2.101272,-0.4069 -0.78046,-3.2388 -1.545647,-6.4811 -2.295516,-9.7268 m -5.008962,0.7201 c 0.190767,3.3258 0.364902,6.6528 0.52236,9.9809 0.716434,-0.061 1.429332,-0.1188 2.136054,-0.2013 -0.461946,-3.299 -0.908027,-6.6 -1.338199,-9.903 m -5.040676,0.2173 c -0.145098,3.3297 -0.307128,6.6586 -0.486042,9.9867 0.466531,0.01 0.931862,0.017 1.396338,0.02 0.25246,7e-4 0.504441,-5e-4 0.75588,-0 -0.131007,-3.3308 -0.245556,-6.6622 -0.343606,-9.9942 m -5.038847,-0.2841 c -0.475551,3.2967 -0.967421,6.5912 -1.475566,9.8834 0.712969,0.083 1.422659,0.1692 2.13231,0.2296 0.204671,-3.3252 0.42544,-6.6492 0.662265,-9.9718 m -5.001076,-0.7864 c -0.793559,3.2354 -1.602826,6.4672 -2.427758,9.6952 0.700277,0.1509 1.396685,0.3053 2.095297,0.4342 0.529531,-3.2889 1.074597,-6.5752 1.635156,-9.8587 m -4.914299,-1.2701 c -1.099122,3.1458 -2.213343,6.2865 -3.342617,9.422 0.682031,0.2169 1.359701,0.437 2.041805,0.632 0.843143,-3.2238 1.701259,-6.4435 2.574306,-9.6591 m -4.77838,-1.7335 c -1.392242,3.0279 -2.798972,6.0492 -4.220145,9.0639 0.658233,0.2806 1.311706,0.564 1.971834,0.8228 1.14551,-3.1298 2.305429,-6.2541 3.479716,-9.3729 m -4.59332,-2.1765 c -1.672917,2.8815 -3.359713,5.7551 -5.06034,8.6207 0.62888,0.3422 1.2527,0.6865 1.885383,1.007 1.43663,-3.0071 2.887106,-6.0072 4.351386,-9.0005 m -4.35912,-2.5991 c -1.941149,2.7069 -3.895565,5.4045 -5.863203,8.0926 0.593975,0.4015 1.182683,0.8044 1.782454,1.1843 1.716502,-2.8555 3.446288,-5.7026 5.189315,-8.5415 m -4.075778,-3.0014 c -2.196937,2.504 -4.40653,4.9972 -6.628735,7.4795 0.553517,0.4587 1.101656,0.9178 1.663046,1.3547 1.985128,-2.675 3.982977,-5.3404 5.993504,-7.996 m -3.745407,-3.3817 c -2.439035,2.2719 -4.889602,4.5313 -7.351592,6.7782 0.238323,0.2428 0.475628,0.4857 0.714243,0.7266 0.267613,0.2683 0.536534,0.5338 0.809685,0.7934 2.242507,-2.4658 4.497172,-4.9205 6.763953,-7.3641 m -3.391063,-3.7366 c -2.651675,2.0158 -5.313439,4.0185 -7.985182,6.0082 0.450089,0.5593 0.895334,1.1188 1.358768,1.6599 2.478514,-2.2264 4.967636,-4.4406 7.467265,-6.6425 m -3.011558,-4.0678 c -2.835488,1.7484 -5.679621,3.4833 -8.532291,5.2044 0.393112,0.5989 0.781037,1.1977 1.188476,1.7798 2.684802,-1.9721 5.378825,-3.9313 8.081967,-5.8776 m -2.609774,-4.3524 c -2.990474,1.4699 -5.98815,2.9256 -8.992919,4.367 0.333764,0.6331 0.662177,1.2655 1.011357,1.8831 2.86276,-1.7052 5.733352,-3.397 8.611676,-5.0753 m -2.187636,-4.5879 c -3.116633,1.1801 -6.239024,2.3455 -9.367066,3.496 0.272045,0.6618 0.538758,1.3222 0.827414,1.9699 3.012385,-1.4259 6.031216,-2.8379 9.05639,-4.2357 m -1.745142,-4.7743 c -3.213965,0.8792 -6.432245,1.7429 -9.6547312,2.5912 0.2079542,0.6851 0.4107772,1.3681 0.6366432,2.0403 3.133681,-1.1342 6.272419,-2.2539 9.416113,-3.3589 m -1.282294,-4.9114 c -3.28247,0.5669 -6.567812,1.1178 -9.8559165,1.6527 0.1414919,0.7028 0.2782354,1.4028 0.4390472,2.0942 3.2266443,-0.8301 6.4569593,-1.6451 9.6908413,-2.4448 m -0.79909,-4.9995 c -3.322148,0.2435 -6.645725,0.4704 -9.9706207,0.6807 0.072659,0.7149 0.1411333,1.4265 0.2346256,2.1316 3.2912771,-0.5136 6.5848371,-1.0115 9.8805761,-1.4935 m -0.296911,-5.0385 c -3.332355,-0.091 -6.664153,-0.1994 -9.9952868,-0.3246 -2.88e-4,0.2139 -8.886e-4,0.4276 -0.00102,0.6411 0.0014,0.5057 0.00541,1.0094 0.022225,1.511 3.3275798,-0.1847 6.6560528,-0.353 9.9853178,-0.5049 m 0.204433,-5.0409 c -3.303888,-0.4237 -6.60579,-0.8638 -9.9055959,-1.3202 -0.071674,0.7145 -0.14697,1.4258 -0.196302,2.1367 3.3283579,0.1518 6.6556869,0.3198 9.9818859,0.5039 m 0.707291,-5.0104 c -3.247099,-0.7436 -6.49078,-1.50309 -9.7309352,-2.27829 -0.1401776,0.70267 -0.283881,1.40159 -0.4019785,2.10229 3.2966357,0.4785 6.5908437,0.9725 9.8825217,1.4822 m 1.194267,-4.93148 c -3.161986,-1.05119 -6.319123,-2.11758 -9.471303,-3.19911 -0.206482,0.68531 -0.4162318,1.36634 -0.6008297,2.05144 3.2360947,0.79385 6.4683617,1.60276 9.6966987,2.42669 m 1.660888,-4.80337 c -3.048549,-1.34629 -6.090818,-2.70718 -9.1267,-4.0826 -0.270587,0.66241 -0.544021,1.32011 -0.792855,1.98411 3.146735,1.09801 6.288241,2.21051 9.424418,3.33748 m 2.107155,-4.62615 c -2.906789,-1.62896 -5.805868,-3.27189 -8.697128,-4.92875 -0.332491,0.63393 -0.66725,1.26285 -0.978053,1.90028 3.028554,1.39092 6.050481,2.79578 9.065678,4.21453 m 2.533066,-4.39979 c -2.736705,-1.89917 -5.464269,-3.81171 -8.182584,-5.73757 -0.392195,0.59992 -0.785917,1.19459 -1.156426,1.79999 2.881555,1.67258 5.755082,3.35855 8.620481,5.05784 m 2.938622,-4.12429 c -2.538297,-2.15695 -5.066023,-4.32665 -7.583069,-6.50906 -0.449701,0.56034 -0.900025,1.11532 -1.327974,1.6832 2.705736,1.94302 5.402045,3.89884 8.088824,5.86743 m 3.323765,-3.79972 c -2.311717,-2.40243 -4.611046,-4.81662 -6.897943,-7.24247 -0.06166,0.0625 -0.123317,0.12488 -0.184951,0.18727 -0.443113,0.45156 -0.884017,0.90099 -1.308326,1.36199 2.501097,2.20219 4.991368,4.41662 7.47071,6.64326 m 3.681376,-3.44877 c -2.057416,-2.61967 -4.101864,-5.24966 -6.133299,-7.88986 -0.55246,0.45896 -1.105273,0.91315 -1.639301,1.38531 2.265863,2.44297 4.5196,4.89677 6.761167,7.3613 m 4.017862,-3.0738 c -1.791885,-2.80808 -3.570223,-5.62505 -5.334969,-8.45077 -0.592988,0.40236 -1.185838,0.79958 -1.761738,1.21611 2.013444,2.65378 4.01417,5.317 6.002135,7.98956 m 4.310312,-2.67526 c -1.515127,-2.96767 -3.016126,-5.94278 -4.502953,-8.92521 -0.628035,0.3434 -1.255393,0.68146 -1.867697,1.04009 1.7486,2.83625 3.48389,5.68057 5.205827,8.53283 m 4.55362,-2.25637 c -1.22714,-3.09843 -2.439571,-6.20285 -3.637251,-9.31315 -0.657601,0.28205 -1.313938,0.55876 -1.957177,0.85722 1.471329,2.99041 2.928757,5.98748 4.37224,8.99112 m 4.747789,-1.81713 c -0.927924,-3.20036 -1.840561,-6.40527 -2.737865,-9.61462 -0.681683,0.21834 -1.361472,0.43151 -2.030178,0.66755 1.181633,3.11622 2.348773,6.23772 3.501377,9.3644 m 4.892816,-1.35753 c -0.61748,-3.27347 -1.219092,-6.55004 -1.804792,-9.8296 -0.700283,0.15225 -1.397995,0.29969 -2.0867,0.47104 0.879511,3.21371 1.743938,6.4313 2.593236,9.65269 m 4.988702,-0.87757 c -0.295807,-3.31775 -0.575167,-6.63716 -0.838034,-9.95811 -0.713401,0.0838 -1.423507,0.16332 -2.126742,0.2677 0.564963,3.28287 1.11425,6.56823 1.647818,9.856 m 5.035447,-0.37726 c 0.03709,-3.3332 0.09122,-6.66662 0.162409,-10.00014 -0.721036,0.013 -1.438009,0.0224 -2.150306,0.0575 0.237991,3.32368 0.459713,6.64848 0.665123,9.9743"
       transform="matrix(-0.7217003,0.72157251,-0.7217003,-0.72157251,818.87245,1704.0643)"
       sodipodi:start="0"
       sodipodi:end="4.7169341"
       sodipodi:open="true"
       inkscape:path-effect="#path-effect3483" />
  </g>
</svg>
